<svg width="60" height="61" viewBox="0 0 60 61" fill="none" xmlns="http://www.w3.org/2000/svg">
<g clip-path="url(#clip0_100_12859)">
<path d="M17.5 48C17.5 45.5 17.8833 43.25 18.65 41.25C19.45 39.2167 20.8333 37.2833 22.8 35.45C24.8 33.6167 27.5667 31.7667 31.1 29.9C32.7333 29.0333 34.05 28.2333 35.05 27.5C36.05 26.7667 36.7833 25.9833 37.25 25.15C37.7167 24.3167 37.95 23.3 37.95 22.1C37.95 20.2667 37.35 18.7833 36.15 17.65C34.9833 16.4833 33.2167 15.9 30.85 15.9C28.35 15.9 26.3667 16.55 24.9 17.85C23.4667 19.15 22.5667 21 22.2 23.4L17.7 23.1C18.1 19.6333 19.4333 16.8667 21.7 14.8C23.9667 12.7333 27.0167 11.7 30.85 11.7C34.5167 11.7 37.3667 12.65 39.4 14.55C41.4333 16.45 42.45 18.9333 42.45 22C42.45 23.8 42.15 25.3667 41.55 26.7C40.95 28 39.9333 29.2167 38.5 30.35C37.1 31.4833 35.1667 32.7 32.7 34C29.5 35.7 27.0667 37.4167 25.4 39.15C23.7667 40.8833 22.9 42.4333 22.8 43.8H42.45V48H17.5Z" fill="white"/>
</g>
<rect x="1.5" y="2" width="57" height="57" rx="28.5" stroke="#C7EF4E" stroke-width="3"/>
<defs>
<clipPath id="clip0_100_12859">
<rect y="0.5" width="60" height="60" rx="30" fill="white"/>
</clipPath>
</defs>
</svg>
