<svg width="60" height="61" viewBox="0 0 60 61" fill="none" xmlns="http://www.w3.org/2000/svg">
<g clip-path="url(#clip0_100_12859)">
<path d="M29.55 48.8C25.6167 48.8 22.5833 47.8833 20.45 46.05C18.3167 44.1833 17.1667 41.7833 17 38.85L21.45 38.55C21.65 40.7167 22.4833 42.2667 23.95 43.2C25.45 44.1333 27.3167 44.6 29.55 44.6C31.0833 44.6 32.5 44.4 33.8 44C35.1 43.5667 36.15 42.8833 36.95 41.95C37.75 40.9833 38.15 39.7 38.15 38.1C38.15 35.7333 37.3667 34 35.8 32.9C34.2333 31.8 32.1667 31.25 29.6 31.25H26.8V27.05H29.6C31.7 27.05 33.4333 26.6333 34.8 25.8C36.2 24.9667 36.9 23.5333 36.9 21.5C36.9 17.7667 34.5333 15.9 29.8 15.9C27.4667 15.9 25.7 16.35 24.5 17.25C23.3333 18.15 22.6333 19.3833 22.4 20.95L17.9 20.65C18.2333 17.9833 19.4167 15.8333 21.45 14.2C23.4833 12.5333 26.2667 11.7 29.8 11.7C33.4 11.7 36.2333 12.5667 38.3 14.3C40.3667 16 41.4 18.3333 41.4 21.3C41.4 25.1 39.35 27.6333 35.25 28.9C37.55 29.5333 39.35 30.6667 40.65 32.3C41.9833 33.9 42.65 35.8333 42.65 38.1C42.65 40.3667 42.0833 42.3 40.95 43.9C39.85 45.5 38.3167 46.7167 36.35 47.55C34.3833 48.3833 32.1167 48.8 29.55 48.8Z" fill="white"/>
</g>
<rect x="1.5" y="2" width="57" height="57" rx="28.5" stroke="#C7EF4E" stroke-width="3"/>
<defs>
<clipPath id="clip0_100_12859">
<rect y="0.5" width="60" height="60" rx="30" fill="white"/>
</clipPath>
</defs>
</svg>
