<svg width="575" height="719" viewBox="0 0 575 719" fill="none" xmlns="http://www.w3.org/2000/svg">
<path d="M279.044 542.699C202.941 542.699 88.7021 489.004 72.2131 481.056H25.3675C23.1249 481.056 20.9741 480.165 19.3883 478.579C17.8025 476.993 16.9116 474.842 16.9116 472.6V371.129C16.9116 368.886 17.8025 366.736 19.3883 365.15C20.9741 363.564 23.1249 362.673 25.3675 362.673H96.566C178.842 323.607 248.772 351.173 329.61 383.052C343.14 388.379 356.754 393.791 370.79 399.034L468.963 341.872C479.121 335.74 490.701 332.36 502.563 332.063C514.424 331.767 526.158 334.564 536.61 340.181C544.267 344.512 551.037 350.25 556.566 357.092C557.249 358.017 557.736 359.072 557.998 360.191C558.26 361.311 558.29 362.472 558.088 363.603C557.964 364.728 557.616 365.816 557.064 366.804C556.512 367.792 555.768 368.659 554.875 369.353C554.875 369.353 512.088 402.5 463.044 438.692C457.86 454.235 447.917 467.753 434.622 477.329C421.327 486.906 405.355 492.055 388.97 492.048C366.624 508.528 342.984 523.176 318.279 535.85C305.793 540.744 292.45 543.074 279.044 542.699ZM33.8234 464.144H74.158C75.4464 464.139 76.719 464.428 77.8785 464.989C79.5697 465.835 246.996 547.35 310.754 520.714C329.35 511.541 347.141 500.82 363.941 488.666L238.625 459.916C236.717 459.486 235.018 458.409 233.815 456.867C232.613 455.326 231.982 453.415 232.029 451.46C231.991 450.84 231.991 450.219 232.029 449.6C232.279 448.517 232.739 447.493 233.384 446.588C234.029 445.683 234.846 444.914 235.788 444.325C236.731 443.736 237.78 443.339 238.876 443.156C239.972 442.973 241.094 443.007 242.176 443.258L375.779 473.53C379.271 474.381 382.842 474.863 386.434 474.967H387.11C398.999 475.319 410.733 472.204 420.883 466.003C431.032 459.803 439.159 450.783 444.272 440.045C418.726 433.702 393.569 425.881 368.93 416.622H368.423C353.033 410.956 338.151 405.037 323.437 399.203C242.515 367.324 178.588 342.125 102.231 379.162C101.061 379.691 99.7953 379.979 98.5109 380.008H33.8234V464.144ZM391.592 406.897C411.81 414.001 432.386 420.041 453.235 424.993C489.934 397.934 522.912 372.736 537.033 361.828C534.244 359.309 531.214 357.071 527.985 355.148C520.115 350.994 511.3 348.958 502.405 349.24C493.51 349.522 484.842 352.111 477.25 356.754L391.592 406.897Z" fill="#84CC16"/>
<path d="M451.796 238.541C447.183 238.399 442.594 237.805 438.097 236.766C423.449 233.603 409.904 226.604 398.85 216.486C387.795 206.368 379.629 193.493 375.186 179.181C358.95 130.898 392.097 111.534 424.061 92.0011C446.046 78.979 468.708 65.4496 481.476 42.1113C483.255 38.8387 485.941 36.1488 489.21 34.364C492.48 32.5792 496.195 31.7754 499.91 32.0488C503.424 32.2618 506.8 33.4951 509.623 35.5979C512.447 37.7006 514.596 40.5813 515.807 43.8871C537.623 102.571 530.435 179.181 499.91 215.457C494.157 222.692 486.838 228.528 478.505 232.526C470.171 236.525 461.039 238.581 451.796 238.541ZM498.895 49.2143C498.403 49.2438 497.927 49.3992 497.512 49.6658C497.098 49.9323 496.759 50.301 496.527 50.7363C481.645 77.9643 455.855 93.0158 433.108 106.883C397.932 127.854 380.174 140.707 391.505 174.53C395.037 185.997 401.534 196.329 410.339 204.48C419.143 212.632 429.944 218.314 441.649 220.953C449.941 222.878 458.611 222.397 466.639 219.566C474.667 216.735 481.721 211.672 486.972 204.972C513.27 173.178 519.189 102.402 499.741 49.8908C499.741 49.468 499.233 49.2988 498.641 49.2143H498.895Z" fill="#84CC16"/>
<path d="M355.147 321.324C352.905 321.324 350.754 320.433 349.168 318.848C347.582 317.262 346.691 315.111 346.691 312.868C346.691 249.957 382.206 217.909 416.537 186.96C444.441 161.593 473.361 135.718 484.184 92.0008C484.442 90.9165 484.912 89.8938 485.567 88.9917C486.221 88.0896 487.048 87.3258 487.999 86.7443C488.949 86.1628 490.006 85.775 491.107 85.6032C492.208 85.4314 493.333 85.4791 494.416 85.7434C496.587 86.2655 498.464 87.6256 499.637 89.5267C500.809 91.4278 501.182 93.7156 500.673 95.8905C489.004 144.765 458.394 172.67 428.291 199.56C395.144 229.663 363.603 257.821 363.603 312.868C363.603 315.111 362.712 317.262 361.127 318.848C359.541 320.433 357.39 321.324 355.147 321.324Z" fill="#84CC16"/>
<path d="M293.25 252.83C252.577 252.83 244.544 220.867 237.525 192.624C232.452 172.499 227.209 151.698 212.158 136.477C209.9 134.115 208.341 131.174 207.654 127.979C206.968 124.785 207.18 121.463 208.268 118.382C209.415 115.503 211.33 112.995 213.806 111.131C216.281 109.267 219.221 108.118 222.305 107.812C274.9 104.429 332.992 127.937 354.724 161.422C360.274 169.431 363.462 178.837 363.926 188.57C364.389 198.303 362.109 207.97 357.345 216.47C351.198 227.374 342.289 236.467 331.512 242.835C320.736 249.203 308.472 252.621 295.955 252.746L293.25 252.83ZM232.198 124.132C229.323 124.132 226.504 124.132 223.742 124.132C242.683 142.904 248.687 167.003 254.099 188.227C262.047 220.021 267.375 236.51 295.533 235.58C305.104 235.538 314.493 232.965 322.75 228.124C331.007 223.283 337.836 216.345 342.547 208.014C345.889 202.182 347.49 195.514 347.16 188.801C346.83 182.087 344.584 175.608 340.687 170.132C323.606 144.172 275.492 124.132 232.198 124.132Z" fill="#84CC16"/>
<path d="M355.146 336.966C352.904 336.966 350.753 336.076 349.167 334.49C347.581 332.904 346.69 330.753 346.69 328.511V312.867C346.69 260.356 312.867 198.544 264.837 162.606C263.043 161.261 261.857 159.257 261.54 157.037C261.223 154.817 261.801 152.562 263.146 150.768C264.492 148.974 266.495 147.788 268.715 147.471C270.935 147.153 273.19 147.731 274.985 149.077C327.496 188.312 363.602 255.705 363.602 312.867V328.172C363.648 329.311 363.463 330.447 363.058 331.512C362.654 332.577 362.038 333.55 361.248 334.371C360.459 335.193 359.511 335.846 358.462 336.292C357.414 336.738 356.286 336.967 355.146 336.966Z" fill="#84CC16"/>
<path d="M372.059 417.214C371.023 417.217 369.994 417.046 369.015 416.707C353.456 410.957 338.489 405.038 323.945 399.372C303.736 391.339 284.625 383.813 265.769 377.471C264.612 377.087 263.553 376.457 262.663 375.625C261.772 374.794 261.072 373.779 260.611 372.652C260.095 371.538 259.829 370.327 259.829 369.1C259.829 367.874 260.095 366.662 260.611 365.549C274.901 338.236 312.868 320.056 355.993 320.056C399.118 320.056 434.548 336.968 449.938 363.096C450.494 364.059 450.856 365.123 451.001 366.225C451.146 367.328 451.072 368.449 450.783 369.523C450.221 371.689 448.822 373.544 446.894 374.681L375.949 416.115C374.76 416.79 373.425 417.167 372.059 417.214ZM281.581 365.041C297.394 370.707 313.46 376.964 330.202 383.644C343.478 388.887 357.092 394.214 371.214 399.457L430.405 364.788C415.776 347.876 387.28 336.968 356.078 336.968C324.875 336.968 295.956 347.96 281.243 365.041H281.581Z" fill="#84CC16"/>
</svg>
